# xmcd CD database file
#
# Track frame offsets:
#	150
#	15230
#	30580
#	45785
#	60785
#	73885
#	87655
#	103915
#	115620
#	126690
#	136770
#	151760
#	166575
#	181260
#	194365
#	208940
#	222820
#	237730
#	251725
#	265870
#
# Disc length: 3739 seconds
#
# Revision: 0
# Processed by: cddbd v1.5.2PL0 Copyright (c) Steve Scherf et al.
# Submitted via: CDex 1.70beta2
#
DISCID=130e9914
DTITLE=Glenn Miller - American Jazz Bandleader [CD2)
DYEAR=2008
DGENRE=Jazz
TTITLE0=Moonlight serenade
TTITLE1=Tuxedo junction
TTITLE2=Chattanooga choo choo
TTITLE3=Perfidia
TTITLE4=Little brown jug
TTITLE5=Juke box saturday night
TTITLE6=A nightingale sang in Berkeley square
TTITLE7=Fools rush in
TTITLE8=Over the rainbow
TTITLE9=Danny boy
TTITLE10=My isle of golden dreams
TTITLE11=Moonlight cocktail
TTITLE12=My prayer
TTITLE13=Blue orchids
TTITLE14=(Why couldn't it last) Last night
TTITLE15=My last goodbye
TTITLE16=Indian summer
TTITLE17=I want to he happy
TTITLE18=Rhapsody in blue
TTITLE19=A string of pearls
EXTD=YEAR: 2008
EXTT0=
EXTT1=
EXTT2=
EXTT3=
EXTT4=
EXTT5=
EXTT6=
EXTT7=
EXTT8=
EXTT9=
EXTT10=
EXTT11=
EXTT12=
EXTT13=
EXTT14=
EXTT15=
EXTT16=
EXTT17=
EXTT18=
EXTT19=
PLAYORDER=
